<?xml version="1.0" encoding="UTF-8" standalone="no"?>
<svg
   xmlns:dc="http://purl.org/dc/elements/1.1/"
   xmlns:cc="http://creativecommons.org/ns#"
   xmlns:rdf="http://www.w3.org/1999/02/22-rdf-syntax-ns#"
   xmlns:svg="http://www.w3.org/2000/svg"
   xmlns="http://www.w3.org/2000/svg"
   xmlns:sodipodi="http://sodipodi.sourceforge.net/DTD/sodipodi-0.dtd"
   xmlns:inkscape="http://www.inkscape.org/namespaces/inkscape"
   version="1.1"
   viewBox="0.0 0.0 348.0 348.0"
   fill="none"
   stroke="none"
   stroke-linecap="square"
   stroke-miterlimit="10"
   id="svg91"
   sodipodi:docname="needyDeterminants.svg"
   inkscape:version="0.92.3 (2405546, 2018-03-11)">
  <metadata
     id="metadata97">
    <rdf:RDF>
      <cc:Work
         rdf:about="">
        <dc:format>image/svg+xml</dc:format>
        <dc:type
           rdf:resource="http://purl.org/dc/dcmitype/StillImage" />
      </cc:Work>
    </rdf:RDF>
  </metadata>
  <defs
     id="defs95" />
  <sodipodi:namedview
     pagecolor="#ffffff"
     bordercolor="#666666"
     borderopacity="1"
     objecttolerance="10"
     gridtolerance="10"
     guidetolerance="10"
     inkscape:pageopacity="0"
     inkscape:pageshadow="2"
     inkscape:window-width="1920"
     inkscape:window-height="1017"
     id="namedview93"
     showgrid="false"
     inkscape:zoom="1.7898617"
     inkscape:cx="80.976053"
     inkscape:cy="174"
     inkscape:window-x="-8"
     inkscape:window-y="-8"
     inkscape:window-maximized="1"
     inkscape:current-layer="g89" />
  <clipPath
     id="p.0">
    <path
       d="m0 0l348.0 0l0 348.0l-348.0 0l0 -348.0z"
       clip-rule="nonzero"
       id="path2" />
  </clipPath>
  <g
     clip-path="url(#p.0)"
     id="g89">
    <path
       d="m0 0l348.0 0l0 348.0l-348.0 0z"
       id="path5"
       fill-rule="nonzero"
       fill-opacity="0.0"
       fill="#000000" />
    <path
       d="m-6.0 0l354.01575 0l0 347.9685l-354.01575 0z"
       id="path7"
       fill-rule="nonzero"
       fill="#ffffff" />
    <path
       d="m5.07874 5.7758217l336.9134 0l0 337.6693l-336.9134 0z"
       id="path9"
       fill-rule="nonzero"
       fill-opacity="0.0"
       fill="#000000" />
    <path
       d="m5.07874 5.7758217l336.9134 0l0 337.6693l-336.9134 0z"
       id="path11"
       stroke-linejoin="round"
       stroke-linecap="butt"
       stroke-width="2.0"
       stroke="#000000"
       fill-rule="nonzero" />
    <path
       d="m133.84251 15.666667l74.33072 0l0 56.881886l-74.33072 0z"
       id="path13"
       fill-rule="nonzero"
       fill="#000000" />
    <path
       d="m154.53912 44.089794q0 -4.0625 0.828125 -6.53125q0.84375 -2.484375 2.484375 -3.828125q1.65625 -1.34375 4.15625 -1.34375q1.84375 0 3.234375 0.75q1.390625 0.734375 2.296875 2.140625q0.90625 1.390625 1.421875 3.40625q0.515625 2.0 0.515625 5.40625q0 4.03125 -0.828125 6.515625q-0.828125 2.46875 -2.484375 3.828125q-1.640625 1.34375 -4.15625 1.34375q-3.3125 0 -5.203125 -2.375q-2.265625 -2.859375 -2.265625 -9.3125zm2.890625 0q0 5.640625 1.3125 7.515625q1.328125 1.859375 3.265625 1.859375q1.9375 0 3.25 -1.875q1.328125 -1.875 1.328125 -7.5q0 -5.65625 -1.328125 -7.515625q-1.3125 -1.859375 -3.28125 -1.859375q-1.9375 0 -3.09375 1.640625q-1.453125 2.09375 -1.453125 7.734375zm14.90625 0q0 -4.0625 0.828125 -6.53125q0.84375 -2.484375 2.484375 -3.828125q1.65625 -1.34375 4.15625 -1.34375q1.84375 0 3.234375 0.75q1.390625 0.734375 2.296875 2.140625q0.90625 1.390625 1.421875 3.40625q0.515625 2.0 0.515625 5.40625q0 4.03125 -0.828125 6.515625q-0.828125 2.46875 -2.484375 3.828125q-1.640625 1.34375 -4.15625 1.34375q-3.3125 0 -5.203125 -2.375q-2.265625 -2.859375 -2.265625 -9.3125zm2.890625 0q0 5.640625 1.3125 7.515625q1.328125 1.859375 3.265625 1.859375q1.9375 0 3.25 -1.875q1.328125 -1.875 1.328125 -7.5q0 -5.65625 -1.328125 -7.515625q-1.3125 -1.859375 -3.28125 -1.859375q-1.9375 0 -3.09375 1.640625q-1.453125 2.09375 -1.453125 7.734375z"
       id="path15"
       fill-rule="nonzero"
       fill="#ffffff" />
    <path
       d="m15.262467 17.706038l109.88976 0l0 54.83464l-109.88976 0z"
       id="path17"
       fill-rule="nonzero"
       fill="#ffffff" />
    <path
       d="m15.262467 17.706038l109.88976 0l0 54.83464l-109.88976 0z"
       id="path19"
       stroke-linejoin="round"
       stroke-linecap="butt"
       stroke-width="2.0"
       stroke="#000000"
       fill-rule="nonzero" />
    <path
       d="m15.262467 72.65354l39.68504 -54.07874"
       id="path21"
       fill-rule="nonzero"
       fill-opacity="0.0"
       fill="#000000" />
    <path
       d="m15.262467 72.65354l39.68504 -54.07874"
       id="path23"
       stroke-linejoin="round"
       stroke-linecap="butt"
       stroke-width="2.0"
       stroke="#000000"
       fill-rule="nonzero" />
    <path
       d="m37.56649 72.65354l39.685043 -54.07874"
       id="path25"
       fill-rule="nonzero"
       fill-opacity="0.0"
       fill="#000000" />
    <path
       d="m37.56649 72.65354l39.685043 -54.07874"
       id="path27"
       stroke-linejoin="round"
       stroke-linecap="butt"
       stroke-width="2.0"
       stroke="#000000"
       fill-rule="nonzero" />
    <path
       d="m59.870514 72.65354l39.685043 -54.07874"
       id="path29"
       fill-rule="nonzero"
       fill-opacity="0.0"
       fill="#000000" />
    <path
       d="m59.870514 72.65354l39.685043 -54.07874"
       id="path31"
       stroke-linejoin="round"
       stroke-linecap="butt"
       stroke-width="2.0"
       stroke="#000000"
       fill-rule="nonzero" />
    <path
       d="m82.17454 72.65354l39.685043 -54.07874"
       id="path33"
       fill-rule="nonzero"
       fill-opacity="0.0"
       fill="#000000" />
    <path
       d="m82.17454 72.65354l39.685043 -54.07874"
       id="path35"
       stroke-linejoin="round"
       stroke-linecap="butt"
       stroke-width="2.0"
       stroke="#000000"
       fill-rule="nonzero" />
    <path
       d="M 32.97638,82.472792 H 315.02362 V 324.835 H 32.97638 Z"
       id="path37"
       inkscape:connector-curvature="0"
       style="fill:#ffffff;fill-rule:nonzero" />
    <path
       d="m216.86351 16.633858l109.889755 0l0 54.83465l-109.889755 0z"
       id="path41"
       fill-rule="nonzero"
       fill="#ffffff" />
    <path
       d="m216.86351 16.633858l109.889755 0l0 54.83465l-109.889755 0z"
       id="path43"
       stroke-linejoin="round"
       stroke-linecap="butt"
       stroke-width="2.0"
       stroke="#000000"
       fill-rule="nonzero" />
    <path
       d="m216.86351 71.58137l39.685043 -54.078743"
       id="path45"
       fill-rule="nonzero"
       fill-opacity="0.0"
       fill="#000000" />
    <path
       d="m216.86351 71.58137l39.685043 -54.078743"
       id="path47"
       stroke-linejoin="round"
       stroke-linecap="butt"
       stroke-width="2.0"
       stroke="#000000"
       fill-rule="nonzero" />
    <path
       d="m239.16754 71.58137l39.685028 -54.078743"
       id="path49"
       fill-rule="nonzero"
       fill-opacity="0.0"
       fill="#000000" />
    <path
       d="m239.16754 71.58137l39.685028 -54.078743"
       id="path51"
       stroke-linejoin="round"
       stroke-linecap="butt"
       stroke-width="2.0"
       stroke="#000000"
       fill-rule="nonzero" />
    <path
       d="m261.47156 71.58137l39.68506 -54.078743"
       id="path53"
       fill-rule="nonzero"
       fill-opacity="0.0"
       fill="#000000" />
    <path
       d="m261.47156 71.58137l39.68506 -54.078743"
       id="path55"
       stroke-linejoin="round"
       stroke-linecap="butt"
       stroke-width="2.0"
       stroke="#000000"
       fill-rule="nonzero" />
    <path
       d="m283.7756 71.58137l39.685028 -54.078743"
       id="path57"
       fill-rule="nonzero"
       fill-opacity="0.0"
       fill="#000000" />
    <path
       d="m283.7756 71.58137l39.685028 -54.078743"
       id="path59"
       stroke-linejoin="round"
       stroke-linecap="butt"
       stroke-width="2.0"
       stroke="#000000"
       fill-rule="nonzero" />
    <path
       d="m 15.43829,82.531086 h 159.5431 V 246.4681 H 15.43829 Z"
       id="path61"
       inkscape:connector-curvature="0"
       style="fill:#000000;fill-rule:nonzero;stroke-width:0.78486639" />
    <path
       d="m113.77165 267.51697l49.259842 0l0 45.480316l-49.259842 0z"
       id="path65"
       fill-rule="nonzero"
       fill-opacity="0.0"
       fill="#000000" />
    <path
       d="m 183.55204,84.763875 h 42.11153 V 126.4481 h -42.11153 z"
       id="path67"
       inkscape:connector-curvature="0"
       style="fill-rule:nonzero;stroke:#000000;stroke-width:0.88517302;stroke-linecap:butt;stroke-linejoin:round" />
    <path
       d="m182.79527 267.51697l49.259842 0l0 45.480316l-49.259842 0z"
       id="path71"
       fill-rule="nonzero"
       fill-opacity="0.0"
       fill="#000000" />
    <path
       d="m260.08136 270.74014l36.724426 0l0 25.637817l-36.724426 0z"
       id="path77"
       fill-rule="nonzero"
       fill="#ffffff" />
    <path
       d="m265.46457 305.50656l0 0c0 -2.3569946 1.9107056 -4.2677307 4.2677 -4.2677307l0 0c1.131897 0 2.2174072 0.449646 3.0177307 1.25c0.800354 0.800354 1.25 1.8858643 1.25 3.0177307l0 0c0 2.3569946 -1.9107361 4.2677307 -4.2677307 4.2677307l0 0c-2.3569946 0 -4.2677 -1.9107361 -4.2677 -4.2677307z"
       id="path81"
       fill-rule="nonzero"
       fill="#ffffff" />
    <path
       d="m282.8084 305.50656l0 0c0 -2.3569946 1.9107056 -4.2677307 4.2677 -4.2677307l0 0c1.1318665 0 2.2173767 0.449646 3.0177307 1.25c0.800354 0.800354 1.25 1.8858643 1.25 3.0177307l0 0c0 2.3569946 -1.9107361 4.2677307 -4.2677307 4.2677307l0 0c-2.3569946 0 -4.2677 -1.9107361 -4.2677 -4.2677307z"
       id="path85"
       fill-rule="nonzero"
       fill="#ffffff" />
    <path
       d="m 232.59512,85.239757 h 42.11153 v 41.684223 h -42.11153 z"
       id="path67-6"
       inkscape:connector-curvature="0"
       style="fill-rule:nonzero;stroke:#000000;stroke-width:0.88517302;stroke-linecap:butt;stroke-linejoin:round" />
    <path
       d="m 282.31964,85.798455 h 42.11153 v 41.684225 h -42.11153 z"
       id="path67-65"
       inkscape:connector-curvature="0"
       style="fill-rule:nonzero;stroke:#000000;stroke-width:0.88517302;stroke-linecap:butt;stroke-linejoin:round" />
    <path
       d="m 183.77002,134.44697 h 42.11153 v 41.68423 h -42.11153 z"
       id="path67-4"
       inkscape:connector-curvature="0"
       style="fill-rule:nonzero;stroke:#000000;stroke-width:0.88517302;stroke-linecap:butt;stroke-linejoin:round" />
    <path
       d="m 232.8131,134.92285 h 42.11153 v 41.68423 H 232.8131 Z"
       id="path67-6-7"
       inkscape:connector-curvature="0"
       style="fill-rule:nonzero;stroke:#000000;stroke-width:0.88517302;stroke-linecap:butt;stroke-linejoin:round" />
    <path
       d="m 282.53762,135.48155 h 42.11153 v 41.68423 h -42.11153 z"
       id="path67-65-0"
       inkscape:connector-curvature="0"
       style="fill-rule:nonzero;stroke:#000000;stroke-width:0.88517302;stroke-linecap:butt;stroke-linejoin:round" />
    <path
       d="m 184.32873,185.2889 h 42.11153 v 41.68422 h -42.11153 z"
       id="path67-1"
       inkscape:connector-curvature="0"
       style="fill-rule:nonzero;stroke:#000000;stroke-width:0.88517302;stroke-linecap:butt;stroke-linejoin:round" />
    <path
       d="m 233.37181,185.76478 h 42.11153 V 227.449 h -42.11153 z"
       id="path67-6-9"
       inkscape:connector-curvature="0"
       style="fill-rule:nonzero;stroke:#000000;stroke-width:0.88517302;stroke-linecap:butt;stroke-linejoin:round" />
    <path
       d="m 283.09633,186.32348 h 42.11153 v 41.68422 h -42.11153 z"
       id="path67-65-2"
       inkscape:connector-curvature="0"
       style="fill-rule:nonzero;stroke:#000000;stroke-width:0.88517302;stroke-linecap:butt;stroke-linejoin:round" />
    <path
       d="m 204.66,235.5307 h 42.11154 v 41.68422 H 204.66 Z"
       id="path67-1-9"
       inkscape:connector-curvature="0"
       style="fill-rule:nonzero;stroke:#000000;stroke-width:0.88517302;stroke-linecap:butt;stroke-linejoin:round" />
    <path
       d="m 254.38451,235.5307 h 42.11153 v 41.68422 h -42.11153 z"
       id="path67-1-5"
       inkscape:connector-curvature="0"
       style="fill-rule:nonzero;stroke:#000000;stroke-width:0.88517302;stroke-linecap:butt;stroke-linejoin:round" />
    <path
       d="M 17.967005,256.67499 H 174.22662 v 48.00275 H 17.967005 Z"
       id="path67-1-0"
       inkscape:connector-curvature="0"
       style="fill-rule:nonzero;stroke:#000000;stroke-width:1.82977736;stroke-linecap:butt;stroke-linejoin:round" />
    <text
       xml:space="preserve"
       style="font-style:normal;font-weight:normal;font-size:32.34218216px;line-height:1.25;font-family:sans-serif;letter-spacing:0px;word-spacing:0px;fill:#000000;fill-opacity:1;stroke:none;stroke-width:0.80855459"
       x="28.898701"
       y="303.70007"
       id="text3919"
       transform="scale(1.0391289,0.96234453)"><tspan
         sodipodi:role="line"
         id="tspan3917"
         x="28.898701"
         y="303.70007"
         style="stroke-width:0.80855459">SUBMIT</tspan></text>
    <text
       xml:space="preserve"
       style="font-style:normal;font-weight:normal;font-size:40px;line-height:1.25;font-family:sans-serif;letter-spacing:0px;word-spacing:0px;fill:#000000;fill-opacity:1;stroke:none"
       x="191.07622"
       y="119.49072"
       id="text3923"><tspan
         sodipodi:role="line"
         id="tspan3921"
         x="191.07622"
         y="119.49072">0</tspan></text>
    <text
       xml:space="preserve"
       style="font-style:normal;font-weight:normal;font-size:40px;line-height:1.25;font-family:sans-serif;letter-spacing:0px;word-spacing:0px;fill:#000000;fill-opacity:1;stroke:none"
       x="191.7507"
       y="168.66151"
       id="text3923-7"><tspan
         sodipodi:role="line"
         id="tspan3921-0"
         x="191.7507"
         y="168.66151">3</tspan></text>
    <text
       xml:space="preserve"
       style="font-style:normal;font-weight:normal;font-size:40px;line-height:1.25;font-family:sans-serif;letter-spacing:0px;word-spacing:0px;fill:#000000;fill-opacity:1;stroke:none"
       x="290.64105"
       y="121.73052"
       id="text3923-8"><tspan
         sodipodi:role="line"
         id="tspan3921-04"
         x="290.64105"
         y="121.73052">2</tspan></text>
    <text
       xml:space="preserve"
       style="font-style:normal;font-weight:normal;font-size:40px;line-height:1.25;font-family:sans-serif;letter-spacing:0px;word-spacing:0px;fill:#000000;fill-opacity:1;stroke:none"
       x="239.2404"
       y="121.73051"
       id="text3923-4"><tspan
         sodipodi:role="line"
         id="tspan3921-8"
         x="239.2404"
         y="121.73051">1</tspan></text>
    <text
       xml:space="preserve"
       style="font-style:normal;font-weight:normal;font-size:40px;line-height:1.25;font-family:sans-serif;letter-spacing:0px;word-spacing:0px;fill:#000000;fill-opacity:1;stroke:none"
       x="240.9165"
       y="221.73825"
       id="text3923-1"><tspan
         sodipodi:role="line"
         id="tspan3921-4"
         x="240.9165"
         y="221.73825">7</tspan></text>
    <text
       xml:space="preserve"
       style="font-style:normal;font-weight:normal;font-size:40px;line-height:1.25;font-family:sans-serif;letter-spacing:0px;word-spacing:0px;fill:#000000;fill-opacity:1;stroke:none"
       x="191.75069"
       y="220.62085"
       id="text3923-9"><tspan
         sodipodi:role="line"
         id="tspan3921-3"
         x="191.75069"
         y="220.62085">6</tspan></text>
    <text
       xml:space="preserve"
       style="font-style:normal;font-weight:normal;font-size:40px;line-height:1.25;font-family:sans-serif;letter-spacing:0px;word-spacing:0px;fill:#000000;fill-opacity:1;stroke:none"
       x="290.64102"
       y="170.33763"
       id="text3923-16"><tspan
         sodipodi:role="line"
         id="tspan3921-6"
         x="290.64102"
         y="170.33763">5</tspan></text>
    <text
       xml:space="preserve"
       style="font-style:normal;font-weight:normal;font-size:40px;line-height:1.25;font-family:sans-serif;letter-spacing:0px;word-spacing:0px;fill:#000000;fill-opacity:1;stroke:none"
       x="240.9165"
       y="169.22021"
       id="text3923-3"><tspan
         sodipodi:role="line"
         id="tspan3921-1"
         x="240.9165"
         y="169.22021">4</tspan></text>
    <text
       xml:space="preserve"
       style="font-style:normal;font-weight:normal;font-size:40px;line-height:1.25;font-family:sans-serif;letter-spacing:0px;word-spacing:0px;fill:#000000;fill-opacity:1;stroke:none"
       x="266.05811"
       y="269.22797"
       id="text3923-5"><tspan
         sodipodi:role="line"
         id="tspan3921-5"
         x="266.05811"
         y="269.22797">-</tspan></text>
    <text
       xml:space="preserve"
       style="font-style:normal;font-weight:normal;font-size:40px;line-height:1.25;font-family:sans-serif;letter-spacing:0px;word-spacing:0px;fill:#000000;fill-opacity:1;stroke:none"
       x="212.98138"
       y="271.46277"
       id="text3923-54"><tspan
         sodipodi:role="line"
         id="tspan3921-9"
         x="212.98138"
         y="271.46277">9</tspan></text>
    <text
       xml:space="preserve"
       style="font-style:normal;font-weight:normal;font-size:40px;line-height:1.25;font-family:sans-serif;letter-spacing:0px;word-spacing:0px;fill:#000000;fill-opacity:1;stroke:none"
       x="290.64102"
       y="221.73825"
       id="text3923-91"><tspan
         sodipodi:role="line"
         id="tspan3921-02"
         x="290.64102"
         y="221.73825">8</tspan></text>
    <g
       aria-label="A  B C  D"
       transform="scale(1.0458648,0.95614655)"
       style="font-style:normal;font-weight:normal;font-size:44.58931351px;line-height:1.25;font-family:sans-serif;letter-spacing:0px;word-spacing:0px;fill:#ffffff;fill-opacity:1;stroke:none;stroke-width:1.11473286"
       id="text3919-1" />
    <rect
       style="fill:#ffffff"
       id="rect91"
       width="5.0283213"
       height="143.02782"
       x="23.4655"
       y="94.349121" />
    <rect
       style="fill:#ffffff"
       id="rect91-6"
       width="5.0283213"
       height="143.02782"
       x="159.50954"
       y="96.583916" />
    <text
       xml:space="preserve"
       style="font-style:normal;font-variant:normal;font-weight:normal;font-stretch:normal;font-size:50.93066944px;line-height:1.25;font-family:sans-serif;-inkscape-font-specification:'sans-serif, Normal';font-variant-ligatures:normal;font-variant-caps:normal;font-variant-numeric:normal;font-feature-settings:normal;text-align:center;letter-spacing:0px;word-spacing:0px;writing-mode:lr;text-anchor:middle;fill:#ffffff;fill-opacity:1;stroke:none;stroke-width:1.27326465;"
       x="93.713951"
       y="151.35117"
       id="text95"
       transform="scale(0.99417739,1.0058567)"><tspan
         sodipodi:role="line"
         id="tspan93"
         x="93.713951"
         y="151.35117"
         style="font-style:normal;font-variant:normal;font-weight:normal;font-stretch:normal;font-size:50.93066944px;font-family:sans-serif;-inkscape-font-specification:'sans-serif, Normal';font-variant-ligatures:normal;font-variant-caps:normal;font-variant-numeric:normal;font-feature-settings:normal;text-align:center;writing-mode:lr;text-anchor:middle;stroke-width:1.27326465;">A  B</tspan><tspan
         sodipodi:role="line"
         x="93.713959"
         y="215.0145"
         id="tspan97"
         style="font-style:normal;font-variant:normal;font-weight:normal;font-stretch:normal;font-size:50.93066944px;font-family:sans-serif;-inkscape-font-specification:'sans-serif, Normal';font-variant-ligatures:normal;font-variant-caps:normal;font-variant-numeric:normal;font-feature-settings:normal;text-align:center;writing-mode:lr;text-anchor:middle;stroke-width:1.27326465;">C  D</tspan></text>
  </g>
</svg>
